<svg width="92.580017" height="104.125000" viewBox="0 0 92.58 104.125" fill="none" xmlns="http://www.w3.org/2000/svg" xmlns:xlink="http://www.w3.org/1999/xlink">
	<desc>
			Created with Pixso.
	</desc>
	<defs/>
	<path id="Vector" d="M8.42 93.71L0 0L92.58 0L84.14 93.7L46.23 104.12L8.42 93.71Z" fill="#1572B6" fill-opacity="1.000000" fill-rule="nonzero"/>
	<path id="Vector" d="M46.29 96.15L76.92 87.73L84.13 7.66L46.29 7.66L46.29 96.15Z" fill="#33A9DC" fill-opacity="1.000000" fill-rule="nonzero"/>
	<path id="Vector" d="M46.29 41.61L61.62 41.61L62.68 29.84L46.29 29.84L46.29 18.35L75.35 18.35L75.07 21.43L72.22 53.11L46.29 53.11L46.29 41.61Z" fill="#FFFFFF" fill-opacity="1.000000" fill-rule="nonzero"/>
	<path id="Vector" d="M46.36 71.46L46.3 71.48L33.4 68.02L32.57 58.85L20.94 58.85L22.56 76.9L46.3 83.44L46.36 83.42L46.36 71.46Z" fill="#EBEBEB" fill-opacity="1.000000" fill-rule="nonzero"/>
	<path id="Vector" d="M60.64 52.62L59.24 68.01L46.32 71.47L46.32 83.43L70.08 76.9L70.25 74.96L72.27 52.62L60.64 52.62Z" fill="#FFFFFF" fill-opacity="1.000000" fill-rule="nonzero"/>
	<path id="Vector" d="M46.33 18.35L46.33 29.84L18.33 29.84L18.1 27.26L17.57 21.43L17.29 18.35L46.33 18.35ZM46.29 41.61L46.29 53.11L33.54 53.11L33.31 50.52L32.78 44.69L32.5 41.61L46.29 41.61Z" fill="#EBEBEB" fill-opacity="1.000000" fill-rule="nonzero"/>
</svg>
