<svg width="105.000000" height="105.000000" viewBox="0 0 105 105" fill="none" xmlns="http://www.w3.org/2000/svg" xmlns:xlink="http://www.w3.org/1999/xlink">
	<desc>
			Created with Pixso.
	</desc>
	<defs>
		<clipPath id="clip9_40">
			<rect rx="-0.500000" width="104.000000" height="104.000000" transform="translate(0.500000 0.500000)" fill="white" fill-opacity="0"/>
		</clipPath>
	</defs>
	<rect rx="-0.500000" width="104.000000" height="104.000000" transform="translate(0.500000 0.500000)" fill="#FFFFFF" fill-opacity="0"/>
	<g clip-path="url(#clip9_40)">
		<path d="M103.02 47.82L57.17 1.98C54.53 -0.66 50.25 -0.66 47.61 1.98L38.09 11.5L50.16 23.57C52.97 22.62 56.19 23.26 58.43 25.5C60.67 27.75 61.31 30.99 60.33 33.81L71.97 45.45C74.79 44.48 78.04 45.1 80.29 47.36C83.43 50.5 83.43 55.59 80.29 58.73C77.14 61.88 72.05 61.88 68.9 58.73C66.54 56.37 65.96 52.9 67.15 49.98L56.3 39.13L56.3 67.69C57.09 68.08 57.8 68.6 58.43 69.21C61.57 72.36 61.57 77.45 58.43 80.59C55.28 83.74 50.19 83.74 47.05 80.59C43.91 77.45 43.91 72.36 47.05 69.21C47.8 68.46 48.7 67.86 49.68 67.46L49.68 38.63C48.7 38.23 47.8 37.63 47.05 36.87C44.67 34.5 44.09 31 45.31 28.08L33.41 16.17L1.98 47.6C-0.67 50.25 -0.67 54.53 1.98 57.17L47.82 103.01C50.46 105.65 54.74 105.65 57.38 103.01L103.01 57.38C105.66 54.74 105.66 50.46 103.01 47.82L103.02 47.82Z" fill="#DE4C36" fill-opacity="1.000000" fill-rule="nonzero"/>
	</g>
</svg>
