<svg width="92.587585" height="105.000000" viewBox="0 0 92.5876 105" fill="none" xmlns="http://www.w3.org/2000/svg" xmlns:xlink="http://www.w3.org/1999/xlink">
	<desc>
			Created with Pixso.
	</desc>
	<defs/>
	<path id="Vector" d="M8.42 94.5L6.1e-5 0L92.58 0L84.15 94.48L46.23 105L8.42 94.5Z" fill="#E44F26" fill-opacity="1.000000" fill-rule="nonzero"/>
	<path id="Vector" d="M46.29 96.96L76.93 88.47L84.13 7.72L46.29 7.72L46.29 96.96Z" fill="#F1662A" fill-opacity="1.000000" fill-rule="nonzero"/>
	<path id="Vector" d="M46.29 42.77L30.95 42.77L29.89 30.9L46.29 30.9L46.29 19.31L17.23 19.31L17.5 22.42L20.35 54.36L46.29 54.36L46.29 42.77ZM46.29 72.87L46.24 72.89L33.33 69.4L32.5 60.16L20.87 60.16L22.49 78.36L46.24 84.95L46.29 84.93L46.29 72.87Z" fill="#EBEBEB" fill-opacity="1.000000" fill-rule="nonzero"/>
	<path id="Vector" d="M46.25 42.77L46.25 54.36L60.52 54.36L59.18 69.4L46.25 72.88L46.25 84.94L70.01 78.36L70.18 76.4L72.91 45.88L73.19 42.77L46.25 42.77ZM46.25 19.31L46.25 30.9L74.25 30.9L74.48 28.3L75.01 22.42L75.28 19.31L46.25 19.31Z" fill="#FFFFFF" fill-opacity="1.000000" fill-rule="nonzero"/>
</svg>
