<svg width="105.000000" height="105.000000" viewBox="0 0 105 105" fill="none" xmlns="http://www.w3.org/2000/svg" xmlns:xlink="http://www.w3.org/1999/xlink">
	<desc>
			Created with Pixso.
	</desc>
	<defs/>
	<path id="Vector" d="M0 0L105 0L105 105L0 105L0 0Z" fill="#F5DE19" fill-opacity="1.000000" fill-rule="nonzero"/>
	<path id="Vector" d="M70.53 82.03C71.42 83.84 72.81 85.37 74.54 86.43C76.26 87.49 78.25 88.05 80.28 88.03C84.37 88.03 86.98 85.98 86.98 83.15C86.98 79.78 84.3 78.57 79.8 76.6L77.33 75.54C70.2 72.51 65.48 68.71 65.48 60.68C65.48 53.28 71.1 47.64 79.93 47.64C82.78 47.44 85.64 48.08 88.13 49.48C90.63 50.89 92.65 52.99 93.96 55.54L86.25 60.48C85.74 59.21 84.87 58.13 83.74 57.37C82.61 56.62 81.27 56.22 79.91 56.25C79.32 56.19 78.72 56.25 78.15 56.44C77.58 56.62 77.06 56.92 76.62 57.32C76.17 57.72 75.82 58.2 75.57 58.75C75.33 59.29 75.2 59.88 75.19 60.48C75.19 63.43 77.02 64.63 81.26 66.48L83.73 67.53C92.11 71.13 96.85 74.79 96.85 83.03C96.85 91.92 89.87 96.78 80.5 96.78C76.85 97.02 73.21 96.19 70.02 94.4C66.83 92.6 64.22 89.93 62.52 86.69L70.53 82.03ZM35.67 82.88C37.22 85.63 38.63 87.96 42.02 87.96C45.26 87.96 47.31 86.69 47.31 81.76L47.31 48.21L57.18 48.21L57.18 81.89C57.18 92.1 51.18 96.75 42.44 96.75C39.35 96.92 36.29 96.15 33.65 94.55C31 92.94 28.91 90.57 27.64 87.75L35.67 82.88Z" fill="#000000" fill-opacity="1.000000" fill-rule="nonzero"/>
</svg>
