<svg width="113.000000" height="101.000000" viewBox="0 0 113 101" fill="none" xmlns="http://www.w3.org/2000/svg" xmlns:xlink="http://www.w3.org/1999/xlink">
	<desc>
			Created with Pixso.
	</desc>
	<defs>
		<clipPath id="clip9_38">
			<rect rx="-0.500000" width="112.000000" height="100.000000" transform="translate(0.500000 0.500000)" fill="white" fill-opacity="0"/>
		</clipPath>
	</defs>
	<rect rx="-0.500000" width="112.000000" height="100.000000" transform="translate(0.500000 0.500000)" fill="#FFFFFF" fill-opacity="0"/>
	<g clip-path="url(#clip9_38)">
		<path d="M92.9 32.7C91.7 32.28 90.49 31.9 89.26 31.55C89.47 30.71 89.66 29.87 89.83 29.06C92.58 15.64 90.78 4.84 84.63 1.28C78.74 -2.13 69.1 1.42 59.36 9.93C58.4 10.77 57.46 11.63 56.55 12.52C55.93 11.93 55.31 11.35 54.68 10.78C44.47 1.69 34.24 -2.14 28.1 1.43C22.21 4.85 20.47 15.01 22.95 27.72C23.2 28.98 23.47 30.23 23.78 31.48C22.34 31.89 20.94 32.33 19.6 32.8C7.64 36.98 0 43.54 0 50.35C0 57.38 8.2 64.43 20.66 68.7C21.67 69.04 22.69 69.36 23.72 69.66C23.38 71 23.09 72.35 22.83 73.71C20.47 86.2 22.31 96.12 28.18 99.52C34.25 103.03 44.43 99.42 54.35 90.72C55.15 90.01 55.94 89.29 56.7 88.54C57.7 89.5 58.71 90.43 59.76 91.34C69.36 99.63 78.85 102.98 84.71 99.57C90.77 96.05 92.74 85.39 90.19 72.43C89.98 71.42 89.76 70.4 89.51 69.4C90.22 69.19 90.92 68.97 91.61 68.74C104.56 64.43 112.99 57.47 112.99 50.35C112.99 43.52 105.1 36.91 92.9 32.7ZM90.09 64.14C89.47 64.35 88.84 64.55 88.19 64.74C86.76 60.19 84.83 55.36 82.47 50.37C84.73 45.5 86.58 40.73 87.97 36.22C89.13 36.55 90.25 36.9 91.33 37.28C101.79 40.89 108.16 46.23 108.16 50.35C108.16 54.73 101.28 60.42 90.09 64.14ZM85.45 73.37C86.58 79.1 86.74 84.29 85.99 88.34C85.32 91.98 83.97 94.41 82.29 95.38C78.73 97.45 71.12 94.76 62.91 87.67C61.94 86.83 60.99 85.96 60.06 85.07C63.25 81.57 66.43 77.51 69.54 73C75 72.51 80.16 71.71 84.84 70.63C85.06 71.54 85.27 72.45 85.45 73.37ZM38.52 95.02C35.04 96.25 32.27 96.29 30.6 95.32C27.03 93.26 25.55 85.29 27.57 74.61C27.81 73.35 28.09 72.09 28.4 70.85C33.02 71.87 38.15 72.61 43.62 73.06C46.75 77.47 50.02 81.53 53.32 85.08C52.62 85.77 51.9 86.43 51.17 87.07C46.79 90.92 42.39 93.65 38.52 95.02ZM22.22 64.12C16.71 62.23 12.16 59.77 9.04 57.09C6.24 54.68 4.83 52.29 4.83 50.35C4.83 46.22 10.96 40.95 21.19 37.37C22.43 36.94 23.73 36.53 25.08 36.14C26.49 40.76 28.35 45.59 30.59 50.47C28.32 55.42 26.44 60.32 25.01 64.99C24.07 64.72 23.14 64.43 22.22 64.12ZM27.69 26.79C25.56 15.9 26.97 7.68 30.52 5.62C34.3 3.42 42.66 6.56 51.47 14.41C52.05 14.92 52.61 15.44 53.17 15.98C49.88 19.52 46.64 23.54 43.54 27.93C38.23 28.43 33.14 29.22 28.46 30.28C28.17 29.13 27.92 27.96 27.69 26.79L27.69 26.79ZM76.43 38.87C75.32 36.95 74.17 35.06 72.99 33.2C76.59 33.66 80.05 34.26 83.29 35C82.32 38.14 81.1 41.41 79.68 44.77C78.63 42.78 77.55 40.81 76.43 38.87ZM56.55 19.44C58.78 21.86 61.01 24.56 63.2 27.5C58.75 27.28 54.29 27.28 49.84 27.49C52.04 24.59 54.29 21.89 56.55 19.44ZM36.55 38.9C35.44 40.83 34.37 42.79 33.36 44.77C31.95 41.42 30.75 38.13 29.77 34.95C32.99 34.23 36.43 33.64 40.01 33.19C38.81 35.07 37.66 36.97 36.55 38.9L36.55 38.9ZM40.11 67.85C36.41 67.44 32.92 66.88 29.7 66.17C30.7 62.94 31.93 59.58 33.36 56.16C34.38 58.14 35.45 60.1 36.57 62.03C37.71 64.01 38.9 65.96 40.11 67.85ZM56.68 81.6C54.39 79.12 52.11 76.38 49.88 73.43C52.05 73.52 54.25 73.56 56.5 73.56C58.8 73.56 61.07 73.51 63.32 73.41C61.12 76.41 58.89 79.15 56.68 81.6ZM79.72 55.99C81.23 59.44 82.5 62.78 83.52 65.96C80.24 66.71 76.7 67.32 72.98 67.77C74.17 65.87 75.33 63.94 76.44 61.99C77.58 60.02 78.67 58.01 79.72 55.99ZM72.26 59.57C70.55 62.56 68.74 65.49 66.84 68.35C63.4 68.6 59.95 68.72 56.5 68.72C52.98 68.72 49.56 68.61 46.27 68.39C44.31 65.53 42.47 62.6 40.74 59.6L40.74 59.6C39.02 56.62 37.41 53.57 35.92 50.46C37.41 47.36 39.01 44.31 40.73 41.32L40.73 41.32C42.44 38.34 44.27 35.42 46.21 32.57C49.57 32.31 53.01 32.18 56.49 32.18L56.5 32.18C59.99 32.18 63.44 32.31 66.8 32.57C68.72 35.41 70.54 38.32 72.25 41.3C73.97 44.28 75.59 47.31 77.12 50.39C75.61 53.51 73.99 56.57 72.26 59.57ZM82.22 5.48C86 7.67 87.48 16.5 85.1 28.08C84.95 28.82 84.78 29.57 84.59 30.33C79.9 29.25 74.81 28.44 69.48 27.94C66.38 23.5 63.16 19.47 59.93 15.97C60.78 15.16 61.64 14.36 62.53 13.58C70.87 6.3 78.67 3.42 82.22 5.48ZM56.5 40.22C62.07 40.22 66.58 44.76 66.58 50.35C66.58 55.94 62.07 60.47 56.5 60.47C50.92 60.47 46.41 55.94 46.41 50.35C46.41 44.76 50.92 40.22 56.5 40.22Z" fill="#00D8FF" fill-opacity="1.000000" fill-rule="nonzero"/>
	</g>
</svg>
