<svg width="117.000000" height="87.000000" viewBox="0 0 117 87" fill="none" xmlns="http://www.w3.org/2000/svg" xmlns:xlink="http://www.w3.org/1999/xlink">
	<desc>
			Created with Pixso.
	</desc>
	<defs>
		<clipPath id="clip9_34">
			<rect rx="-0.500000" width="116.000000" height="86.000000" transform="translate(0.500000 0.500000)" fill="white" fill-opacity="0"/>
		</clipPath>
	</defs>
	<rect rx="-0.500000" width="116.000000" height="86.000000" transform="translate(0.500000 0.500000)" fill="#FFFFFF" fill-opacity="0"/>
	<g clip-path="url(#clip9_34)">
		<path d="M100.67 50.07C96.6 50.09 93.06 51.06 90.1 52.5C89.01 50.37 87.92 48.47 87.73 47.07C87.52 45.44 87.26 44.45 87.52 42.51C87.78 40.56 88.93 37.8 88.9 37.58C88.88 37.37 88.65 36.38 86.3 36.36C83.96 36.34 81.94 36.8 81.7 37.41C81.47 38.03 81.02 39.42 80.72 40.86C80.32 42.97 76.03 50.51 73.58 54.47C72.79 52.92 72.11 51.57 71.96 50.49C71.75 48.87 71.49 47.87 71.75 45.93C72.01 43.99 73.16 41.22 73.14 41.01C73.11 40.8 72.88 39.8 70.54 39.78C68.19 39.76 66.17 40.23 65.93 40.84C65.7 41.45 65.44 42.89 64.95 44.28C64.46 45.68 58.77 58.27 57.28 61.52C56.68 62.84 56.05 64.14 55.38 65.43C55.38 65.43 55.36 65.5 55.3 65.6C55.09 66.01 54.88 66.41 54.66 66.81L54.66 66.83C54.34 67.4 54 67.93 53.83 67.93C53.7 67.93 53.47 66.4 53.87 64.33C54.72 59.96 56.75 53.16 56.73 52.92C56.73 52.8 57.11 51.61 55.41 51C53.74 50.39 53.15 51.4 53 51.4C52.85 51.4 52.74 51.76 52.74 51.76C52.74 51.76 54.6 44.11 49.2 44.11C45.84 44.11 41.19 47.77 38.89 51.06C36.27 52.48 33.66 53.89 31.05 55.31C29.79 56.01 28.49 56.71 27.28 57.36C27.19 57.28 27.1 57.17 27.02 57.09C20.5 50.18 8.44 45.3 8.95 36.02C9.14 32.64 10.31 23.77 32.11 12.99C50.06 4.22 64.33 6.65 66.81 12.04C70.34 19.73 59.16 34.01 40.62 36.08C33.54 36.87 29.83 34.16 28.9 33.15C27.91 32.09 27.77 32.03 27.4 32.24C26.81 32.56 27.19 33.51 27.4 34.06C27.96 35.49 30.24 38.03 34.09 39.27C37.5 40.37 45.79 40.99 55.83 37.14C67.06 32.83 75.84 20.85 73.26 10.81C70.68 0.63 53.64 -2.73 37.5 2.95C27.91 6.33 17.52 11.66 10.04 18.59C1.15 26.83 -0.26 33.99 0.32 36.99C2.38 47.64 17.2 54.57 23.12 59.71C22.82 59.88 22.54 60.02 22.31 60.15C19.35 61.61 8.05 67.46 5.24 73.65C2.04 80.67 5.75 85.7 8.2 86.37C15.81 88.46 23.63 84.7 27.83 78.49C32.03 72.28 31.52 64.21 29.58 60.51C29.56 60.47 29.53 60.42 29.49 60.38C30.26 59.94 31.05 59.47 31.81 59.03C33.22 58.2 34.65 57.41 36.1 56.64C35.37 58.61 34.84 60.95 34.58 64.33C34.26 68.31 35.91 73.46 38.06 75.49C39.02 76.38 40.15 76.4 40.87 76.4C43.39 76.4 44.52 74.33 45.77 71.88C47.31 68.88 48.69 65.39 48.69 65.39C48.69 65.39 46.97 74.81 51.65 74.81C53.36 74.81 55.09 72.62 55.85 71.5L55.85 71.52C55.85 71.52 55.9 71.45 55.98 71.31C56.15 71.03 56.26 70.86 56.26 70.86L56.26 70.82C56.94 69.64 58.47 66.95 60.75 62.5C63.69 56.75 66.53 49.56 66.53 49.56C66.53 49.56 66.79 51.32 67.66 54.23C68.17 55.95 69.24 57.83 70.09 59.64C69.41 60.59 68.98 61.12 68.98 61.12L69 61.14C68.45 61.86 67.85 62.64 67.19 63.4C64.87 66.15 62.1 69.3 61.71 70.21C61.26 71.29 61.37 72.07 62.22 72.7C62.84 73.17 63.95 73.23 65.08 73.17C67.17 73.02 68.64 72.51 69.36 72.19C70.49 71.79 71.81 71.18 73.05 70.27C75.33 68.6 76.72 66.21 76.59 63.07C76.52 61.33 75.95 59.6 75.24 57.97C75.46 57.68 75.65 57.38 75.86 57.09C79.46 51.87 82.26 46.14 82.26 46.14C82.26 46.14 82.51 47.89 83.39 50.81C83.81 52.29 84.69 53.9 85.45 55.46C82.06 58.19 79.98 61.35 79.23 63.43C77.89 67.27 78.93 69 80.91 69.4C81.81 69.6 83.09 69.17 84.02 68.77C85.22 68.39 86.62 67.74 87.97 66.76C90.25 65.09 92.44 62.77 92.31 59.62C92.25 58.19 91.87 56.77 91.33 55.4C94.21 54.21 97.92 53.56 102.65 54.11C112.79 55.29 114.8 61.57 114.41 64.21C114.03 66.85 111.9 68.29 111.2 68.73C110.49 69.17 110.26 69.32 110.32 69.64C110.41 70.1 110.75 70.08 111.35 70C112.18 69.85 116.67 67.86 116.86 63C117.18 56.79 111.22 50.01 100.67 50.07ZM22.42 76.23C19.05 79.86 14.36 81.24 12.34 80.08C10.16 78.83 11.02 73.46 15.15 69.62C17.66 67.27 20.9 65.09 23.06 63.76C23.55 63.47 24.27 63.05 25.14 62.52C25.29 62.43 25.38 62.39 25.38 62.39L25.89 62.07C27.4 67.57 25.95 72.41 22.42 76.23ZM46.92 59.71C45.75 62.54 43.3 69.79 41.81 69.38C40.53 69.05 39.74 63.55 41.55 58.12C42.47 55.4 44.41 52.14 45.54 50.87C47.37 48.85 49.4 48.17 49.89 48.99C50.5 50.07 47.65 57.93 46.92 59.71ZM67.15 69.3C66.66 69.55 66.19 69.72 65.97 69.6C65.83 69.51 66.19 69.17 66.19 69.17C66.19 69.17 68.72 66.47 69.73 65.24C70.3 64.52 70.98 63.68 71.71 62.73L71.71 63C71.71 66.24 68.55 68.41 67.15 69.3L67.15 69.3ZM82.75 65.77C82.38 65.52 82.45 64.67 83.66 62.03C84.13 61 85.24 59.26 87.14 57.59C87.35 58.27 87.5 58.92 87.48 59.54C87.46 63.62 84.52 65.14 82.75 65.77Z" fill="#CD6799" fill-opacity="1.000000" fill-rule="nonzero"/>
	</g>
</svg>
