<svg width="114.625000" height="68.775024" viewBox="0 0 114.625 68.775" fill="none" xmlns="http://www.w3.org/2000/svg" xmlns:xlink="http://www.w3.org/1999/xlink">
	<desc>
			Created with Pixso.
	</desc>
	<defs/>
	<path id="Vector" d="M28.65 22.92C32.47 7.64 42.02 0 57.31 0C80.23 0 83.1 17.19 94.56 20.05C102.2 21.96 108.89 19.1 114.62 11.46C110.8 26.74 101.25 34.38 85.96 34.38C63.04 34.38 60.17 17.19 48.71 14.32C41.07 12.41 34.38 15.28 28.65 22.92ZM0 57.31C3.82 42.02 13.37 34.38 28.65 34.38C51.58 34.38 54.44 51.58 65.9 54.44C73.55 56.35 80.23 53.49 85.96 45.85C82.14 61.13 72.59 68.77 57.31 68.77C34.38 68.77 31.52 51.58 20.05 48.71C12.41 46.8 5.73 49.67 0 57.31Z" fill="#44A8B3" fill-opacity="1.000000" fill-rule="nonzero"/>
</svg>
