<svg width="98.008713" height="97.434326" viewBox="0 0 98.0087 97.4343" fill="none" xmlns="http://www.w3.org/2000/svg" xmlns:xlink="http://www.w3.org/1999/xlink">
	<desc>
			Created with Pixso.
	</desc>
	<defs/>
	<path id="Vector" d="M94.54 10.32L74.36 0.6C73.22 0.05 71.94 -0.13 70.69 0.08C69.44 0.29 68.29 0.89 67.4 1.78L1.33 62.01C0.53 62.74 0.05 63.76 0 64.84C-0.05 65.92 0.33 66.97 1.05 67.78C1.14 67.87 1.23 67.96 1.32 68.05L6.72 72.95C7.42 73.59 8.33 73.96 9.28 74C10.23 74.05 11.17 73.75 11.93 73.18L91.5 12.84C92.1 12.38 92.82 12.1 93.57 12.03C94.32 11.96 95.08 12.1 95.75 12.44C96.43 12.77 97 13.29 97.39 13.93C97.79 14.57 98 15.31 98 16.06L98 15.83C98 14.68 97.68 13.55 97.07 12.57C96.45 11.6 95.58 10.82 94.54 10.32Z" fill="#0065A9" fill-opacity="1.000000" fill-rule="nonzero"/>
	<path id="Vector" d="M94.54 87.11L74.36 96.83C73.22 97.37 71.94 97.55 70.69 97.34C69.44 97.13 68.29 96.54 67.4 95.64L1.33 35.41C0.53 34.68 0.05 33.67 0 32.59C-0.05 31.51 0.33 30.45 1.05 29.65C1.14 29.55 1.23 29.46 1.32 29.38L6.72 24.48C7.42 23.83 8.33 23.46 9.29 23.42C10.24 23.37 11.18 23.67 11.94 24.25L91.5 84.59C92.1 85.04 92.82 85.32 93.57 85.39C94.32 85.46 95.08 85.32 95.75 84.99C96.43 84.65 97 84.14 97.39 83.5C97.79 82.85 98 82.11 98 81.36L98 81.61C98 82.76 97.67 83.89 97.06 84.86C96.45 85.83 95.57 86.61 94.54 87.11Z" fill="#007ACC" fill-opacity="1.000000" fill-rule="nonzero"/>
	<path id="Vector" d="M74.36 96.83C73.22 97.37 71.94 97.55 70.69 97.34C69.44 97.13 68.29 96.54 67.4 95.64C67.9 96.14 68.54 96.48 69.23 96.61C69.92 96.75 70.64 96.67 71.29 96.4C71.94 96.13 72.5 95.67 72.9 95.09C73.29 94.5 73.5 93.81 73.5 93.11L73.5 4.32C73.5 3.61 73.29 2.91 72.9 2.32C72.51 1.73 71.95 1.27 71.29 1C70.64 0.73 69.91 0.66 69.22 0.8C68.52 0.94 67.88 1.28 67.38 1.78C68.28 0.89 69.43 0.29 70.67 0.08C71.92 -0.13 73.2 0.05 74.34 0.6L94.52 10.3C95.56 10.8 96.44 11.58 97.06 12.55C97.67 13.53 98 14.66 98 15.81L98 81.61C98 82.76 97.68 83.89 97.06 84.87C96.45 85.85 95.57 86.63 94.54 87.13L74.36 96.83Z" fill="#1F9CF0" fill-opacity="1.000000" fill-rule="nonzero"/>
</svg>
