<svg width="30.000000" height="30.000000" viewBox="0 0 30 30" fill="none" xmlns="http://www.w3.org/2000/svg" xmlns:xlink="http://www.w3.org/1999/xlink">
	<desc>
			Created with Pixso.
	</desc>
	<defs>
		<clipPath id="clip8_50">
			<rect rx="-0.500000" width="29.000000" height="29.000000" transform="translate(0.500000 0.500000)" fill="white" fill-opacity="0"/>
		</clipPath>
	</defs>
	<rect rx="-0.500000" width="29.000000" height="29.000000" transform="translate(0.500000 0.500000)" fill="#FFFFFF" fill-opacity="0"/>
	<g clip-path="url(#clip8_50)">
		<path d="M15 0.59C7.04 0.59 0.59 7.04 0.59 15C0.59 22.95 7.04 29.4 15 29.4C22.95 29.4 29.4 22.95 29.4 15C29.4 7.04 22.95 0.59 15 0.59ZM11.47 20.96L8.55 20.96L8.55 11.58L11.47 11.58L11.47 20.96ZM9.99 10.43C9.07 10.43 8.48 9.77 8.48 8.97C8.48 8.14 9.09 7.51 10.03 7.51C10.97 7.51 11.55 8.14 11.57 8.97C11.57 9.77 10.97 10.43 9.99 10.43ZM22.12 20.96L19.2 20.96L19.2 15.76C19.2 14.55 18.78 13.73 17.73 13.73C16.92 13.73 16.44 14.29 16.23 14.82C16.15 15.01 16.13 15.28 16.13 15.55L16.13 20.96L13.22 20.96L13.22 14.57C13.22 13.4 13.18 12.42 13.14 11.58L15.67 11.58L15.81 12.88L15.87 12.88C16.25 12.27 17.19 11.37 18.76 11.37C20.68 11.37 22.12 12.65 22.12 15.42L22.12 20.96Z" fill="#666666" fill-opacity="1.000000" fill-rule="nonzero"/>
	</g>
</svg>
