<svg xmlns="http://www.w3.org/2000/svg" viewBox="0 0 24 24" id="upwork">
  <path fill="#6CD441" d="M18.561 5.024c-2.539 0-4.51 1.648-5.31 4.362-1.22-1.832-2.148-4.032-2.687-5.887H7.828v7.105a2.55 2.55 0 0 1-2.547 2.545 2.55 2.55 0 0 1-2.545-2.545V3.5H0v7.105c0 2.911 2.37 5.298 5.281 5.298 2.913 0 5.283-2.387 5.283-5.298V9.416c.529 1.106 1.182 2.227 1.974 3.218L10.865 20.5h2.797l1.213-5.705c1.063.678 2.285 1.108 3.686 1.108 3 0 5.439-2.45 5.439-5.445a5.442 5.442 0 0 0-5.439-5.434zm0 8.133c-1.102 0-2.135-.467-3.074-1.226l.228-1.075.008-.042c.207-1.142.849-3.057 2.839-3.057a2.703 2.703 0 0 1 2.703 2.7 2.706 2.706 0 0 1-2.704 2.7z"></path>
  <path fill="#7C7E81" d="M1.75 0h5.493v.134H1.75zM16.757 0h5.493v.134h-5.493z"></path>
</svg>
