<svg xmlns="http://www.w3.org/2000/svg" xmlns:xlink="http://www.w3.org/1999/xlink" width="88.000000" height="88.000000" viewBox="0 0 88 88" fill="none">
	<desc fill="#ffffff">
			Created with Pixso.
	</desc>
	<defs fill="#ffffff">
		<clipPath id="clip9_42" fill="#ffffff">
			<rect rx="-0.500000" width="87.000000" height="87.000000" transform="translate(0.500000 0.500000)" fill="white" fill-opacity="0"/>
		</clipPath>
	</defs>
	<rect rx="-0.500000" width="87.000000" height="87.000000" transform="translate(0.500000 0.500000)" fill="#ffffff" fill-opacity="0"/>
	<g clip-path="url(#clip9_42)">
		<path d="M44 0C19.69 0 0 19.69 0 44C0 63.47 12.59 79.91 30.08 85.74C32.28 86.13 33.11 84.81 33.11 83.65C33.11 82.61 33.05 79.14 33.05 75.46C22 77.49 19.14 72.76 18.26 70.29C17.76 69.02 15.62 65.12 13.75 64.07C12.21 63.25 10.01 61.21 13.69 61.16C17.16 61.1 19.63 64.35 20.45 65.67C24.42 72.32 30.74 70.45 33.27 69.3C33.66 66.44 34.81 64.51 36.08 63.41C26.29 62.31 16.06 58.52 16.06 41.69C16.06 36.9 17.76 32.94 20.57 29.86C20.12 28.76 18.59 24.25 21.01 18.2C21.01 18.2 24.69 17.04 33.11 22.71C36.63 21.72 40.37 21.23 44.11 21.23C47.85 21.23 51.59 21.72 55.11 22.71C63.52 16.99 67.21 18.2 67.21 18.2C69.62 24.25 68.08 28.76 67.65 29.86C70.45 32.94 72.16 36.84 72.16 41.69C72.16 58.57 61.87 62.31 52.08 63.41C53.68 64.79 55.05 67.43 55.05 71.55C55.05 77.44 55 82.17 55 83.65C55 84.81 55.82 86.18 58.02 85.74C66.75 82.79 74.34 77.18 79.72 69.69C85.1 62.2 87.99 53.21 88 44C88 19.69 68.31 0 44 0Z" fill="#ffffff" fill-opacity="1.000000" fill-rule="evenodd"/>
	</g>
</svg>